# This file uses centimeters as units for non-parametric coordinates.

mtllib seagull.mtl
g default
v -10.367216 -0.786441 4.341001
v -10.098268 -0.480196 -4.851386
v -10.366684 -0.532987 4.404707
v -10.100227 -0.217783 -5.084047
v -10.693233 -0.532987 4.407457
v -11.119493 -0.217783 -5.075460
v -10.693768 -0.786441 4.343750
v -11.117539 -0.480195 -4.842798
v -10.035332 -1.168924 2.620407
v -10.039427 -0.610153 2.620476
v -11.050507 -0.610153 2.628991
v -11.054602 -1.168924 2.628991
v -10.075948 -1.285076 -2.202156
v -10.071267 -0.917606 -1.645755
v -11.090532 -0.917606 -1.637169
v -11.095218 -1.285077 -2.193572
v -9.838782 -1.489484 0.626611
v -9.841490 -0.691786 0.305108
v -11.287412 -0.691786 0.317287
v -11.284705 -1.489484 0.638791
v -10.028282 -0.926227 3.457380
v -10.028068 -0.268198 3.482651
v -11.047333 -0.268198 3.491235
v -11.047546 -0.926227 3.465967
v -10.641755 -0.690398 4.690906
v -10.413387 -0.690398 4.688984
v -10.412844 -0.511651 4.752690
v -10.641213 -0.511651 4.754614
v -10.537701 0.247599 3.486943
v -10.529959 -0.431133 4.406081
v -10.524036 -0.502753 5.109961
v -10.522897 -0.663749 5.244489
v -10.530814 -0.924427 4.304641
v -10.537591 -1.169239 3.499980
v -10.544184 -1.729723 2.717369
v -10.561743 -2.130617 0.632700
v -10.585580 -1.839648 -2.197864
v -10.607907 -0.486191 -4.847092
v -10.609861 -0.216052 -5.079754
v -10.580899 -0.482352 -1.641462
v -10.564451 -0.212183 0.311197
v -10.544970 0.053450 2.624699
v -10.155188 -1.253506 -3.249559
v -10.152681 -0.802908 -2.952586
v -10.591912 -0.639441 -2.948886
v -11.031138 -0.802908 -2.945186
v -11.033639 -1.253506 -3.242158
v -10.594413 -1.490922 -3.245858
v -10.060207 -0.441124 1.695865
v -10.356890 -0.002596 1.697786
v -9.906339 -0.482199 0.397469
v -10.293623 -0.238393 0.400774
v -10.110270 -0.562825 -0.385134
v -10.221424 -0.461526 -0.386338
v -10.821211 -0.236146 0.409566
v -11.220790 -0.489018 0.412678
v -10.913480 -0.452977 -0.338313
v -11.034494 -0.560879 -0.334902
v -10.735260 0.001451 1.651958
v -11.042764 -0.445804 1.655295
v -8.694197 0.947435 1.387239
v -8.784837 1.177801 1.346100
v -8.798152 0.841979 0.001337
v -8.922038 1.014063 0.033217
v -8.956208 0.778887 -1.349636
v -9.013116 0.887211 -1.249736
v -12.247011 1.082812 0.131471
v -12.333647 0.835424 0.037181
v -12.137589 0.894805 -1.163395
v -12.202264 0.779878 -1.261942
v -12.315149 1.149050 1.568947
v -12.411630 0.916434 1.388276
v -7.717485 1.076756 1.396595
v -7.799319 1.324825 1.385465
v -7.440314 1.048796 0.000370
v -7.563730 1.220880 0.005034
v -7.384877 1.145422 -1.699355
v -7.455585 1.220850 -1.663527
v -13.407409 1.273556 0.108438
v -13.690632 1.042241 0.055691
v -13.696108 1.240851 -1.586754
v -13.773281 1.148031 -1.620776
v -13.303713 1.306627 1.989613
v -13.390862 1.056787 1.430334
v -5.373724 1.346931 2.373276
v -5.498650 1.625322 2.375441
v -4.925848 1.275560 0.756879
v -5.104471 1.475318 0.758649
v -4.502395 1.353076 -1.285723
v -4.576761 1.436719 -1.188626
v -15.820578 1.524236 0.899359
v -16.190185 1.267902 0.858921
v -16.550788 1.455374 -1.027106
v -16.634879 1.355325 -1.120947
v -15.591406 1.587381 2.998319
v -15.723241 1.307240 2.429934
v -3.382569 1.399594 1.053110
v -3.400856 1.621148 0.995126
v -2.483487 1.231240 -0.171710
v -2.544437 1.430998 -0.185577
v -1.524012 1.247709 -2.036573
v -1.564492 1.301970 -1.961987
v -18.576119 1.433865 -0.045686
v -18.646848 1.223583 -0.028247
v -19.567471 1.317408 -1.751431
v -19.616999 1.249570 -1.822713
v -17.687076 1.611816 1.063651
v -17.704610 1.383984 1.128772
vt 0.114363 0.782224
vt 0.073738 0.778273
vt 0.107949 0.714877
vt 0.127555 0.758022
vt 0.123711 0.803337
vt 0.110954 0.827399
vt 0.182635 0.692198
vt 0.148573 0.756444
vt 0.133577 0.760674
vt 0.124259 0.775904
vt 0.146431 0.799226
vt 0.172499 0.830635
vt 0.083462 0.879253
vt 0.060217 0.802749
vt 0.136413 0.779379
vt 0.205774 0.766743
vt 0.159061 0.774726
vt 0.143638 0.765752
vt 0.159829 0.855562
vt 0.146110 0.787489
vt 0.060578 0.922414
vt 0.018595 0.826228
vt 0.153487 0.771230
vt 0.163752 0.903187
vt 0.101960 0.654108
vt 0.161899 0.653403
vt 0.161898 0.685173
vt 0.101960 0.684969
vt 0.110241 0.563161
vt 0.161898 0.535239
vt 0.221837 0.654108
vt 0.221837 0.684969
vt 0.101959 0.559448
vt 0.161898 0.494227
vt 0.213556 0.563161
vt 0.076870 0.535408
vt 0.161898 0.460007
vt 0.221837 0.559448
vt 0.246927 0.535408
vt 0.101960 0.602665
vt 0.076870 0.629223
vt 0.246927 0.629223
vt 0.221837 0.602665
vt 0.202305 0.372193
vt 0.497844 0.510067
vt 0.547320 0.566204
vt 0.174987 0.345545
vt 0.252512 0.447027
vt 0.490109 0.422074
vt 0.536684 0.458803
vt 0.143785 0.312285
vt 0.146697 0.312506
vt 0.296248 0.535454
vt 0.285521 0.538438
vt 0.314392 0.573841
vt 0.304088 0.576103
vt 0.309881 0.657631
vt 0.331923 0.727262
vt 0.452898 0.657272
vt 0.328376 0.765406
vt 0.263680 0.747424
vt 0.290647 0.716363
vt 0.265946 0.858640
vt 0.182079 0.878837
vt 0.921242 0.917035
vt 0.955911 0.953713
vt 0.853730 0.945588
vt 0.822584 0.908615
vt 0.975467 0.857272
vt 0.940817 0.802805
vt 0.066201 0.943545
vt 0.068250 0.953404
vt 0.024874 0.942841
vt 0.023039 0.939519
vt 0.107334 0.955845
vt 0.106909 0.966207
vt 0.196512 0.963110
vt 0.200929 0.976447
vt 0.176288 0.958869
vt 0.303320 0.964565
vt 0.305893 0.976294
vt 0.348211 0.963572
vt 0.351311 0.974579
vt 0.417185 0.909642
vt 0.452764 0.886729
vt 0.336115 0.913908
vt 0.469499 0.858539
vt 0.312862 0.946706
vt 0.349708 0.944630
vt 0.242394 0.889953
vt 0.179324 0.911530
vt 0.917973 0.181637
vt 0.866017 0.183908
vt 0.878550 0.119725
vt 0.932421 0.136934
vt 0.958772 0.213885
vt 0.986173 0.154508
vt 0.065506 0.379471
vt 0.016890 0.333543
vt 0.777643 0.135203
vt 0.588204 0.242027
vt 0.110594 0.223823
vt 0.815682 0.161381
vt 0.871820 0.410999
vt 0.576550 0.310522
vt 0.168756 0.223823
vt 0.878006 0.217019
vt 0.903138 0.437360
vt 0.413474 0.808405
vt 0.470965 0.834146
vt 0.225944 0.223822
vt 0.213877 0.265991
vt 0.944481 0.483615
vt 0.016890 0.114103
vt 0.403747 0.489402
vt 0.516390 0.709593
vt 0.580242 0.743645
vt 0.536706 0.868389
vt 0.987929 0.538531
vt 0.065506 0.068175
vt 0.109158 0.082344
vt 0.430050 0.393263
vt 0.599720 0.756594
vt 0.946528 0.621067
vt 0.886379 0.597453
vt 0.385728 0.398492
vt 0.686255 0.700773
vt 0.715894 0.736948
vt 0.873262 0.832138
vt 0.792204 0.810041
vt 0.758156 0.535912
vt 0.814259 0.586901
vt 0.727371 0.957714
vt 0.620485 0.967274
vt 0.712983 0.277191
vt 0.761461 0.385121
vt 0.617123 0.319075
vt 0.647889 0.328815
vt 0.648448 0.395498
vt 0.626303 0.389903
vt 0.592876 0.498171
vt 0.615410 0.503335
vt 0.607442 0.627713
vt 0.593653 0.624488
vt 0.468539 0.384413
vt 0.453729 0.305891
vt 0.485097 0.300160
vt 0.463494 0.163033
vt 0.431373 0.168276
vt 0.393642 0.028933
vt 0.414657 0.025356
vt 0.535464 0.300834
vt 0.575122 0.367798
vt 0.534964 0.341319
vt 0.536171 0.219539
vt 0.836499 0.569519
vt 0.709645 0.803190
vt 0.508671 0.988704
vt 0.649911 0.655756
vt 0.684926 0.434965
vt 0.664715 0.160433
vt 0.391394 0.327666
vt 0.341283 0.405281
vt 0.343914 0.355394
vt 0.366788 0.208751
vt 0.365541 0.491242
vt 0.302616 0.512757
vt 0.310464 0.247164
vt 0.351802 0.089505
vt 0.734276 0.080961
vt 0.744106 0.056089
vt 0.847712 0.073619
vt 0.818012 0.102929
vt 0.926991 0.034626
vt 0.988303 0.034930
vt 0.918780 0.112857
vt 0.885557 0.077347
vt 0.525136 0.028656
vt 0.634677 0.016119
vt 0.666812 0.058446
vt 0.533027 0.061791
vt 0.763508 0.021845
vt 0.715197 0.060596
vt 0.837048 0.132669
vt 0.759699 0.121953
vt 0.306083 0.828484
vt 0.380647 0.722872
vt 0.987502 0.699135
vt 0.951250 0.650837
vt 0.163598 0.168370
vt 0.214749 0.184620
vt 0.093688 0.123805
vt 0.116917 0.149863
vt 0.115077 0.298933
vt 0.163114 0.281963
vt 0.093269 0.322860
vt 0.110627 0.365342
vt 0.948692 0.278950
vt 0.194033 0.376819
vt 0.166465 0.348112
vt 0.239688 0.449204
vt 0.623819 0.247400
vt 0.480532 0.693754
vt 0.374666 0.785022
vt 0.287312 0.657509
vt 0.409018 0.654347
vt 0.428605 0.931464
vt 0.364331 0.918487
vn 0.816560 -0.467701 0.338357
vn 0.942604 -0.278767 0.183811
vn 0.823495 0.565427 0.046350
vn 0.857620 0.316439 0.405406
vn 0.000665 0.997067 0.076534
vn 0.004429 0.850702 0.525630
vn -0.850671 0.316433 0.419796
vn -0.822599 0.565425 0.060220
vn -0.939372 -0.278769 0.199669
vn -0.810742 -0.467705 0.352064
vn 0.002721 -0.946366 0.323085
vn 0.003476 -0.910866 0.412688
vn 0.178328 -0.829925 -0.528606
vn -0.004486 -0.846534 -0.532315
vn -0.006344 -0.657990 -0.752999
vn -0.003591 -0.657988 -0.753020
vn 0.008320 0.204076 0.978920
vn 0.971208 0.050250 0.232873
vn 0.971208 0.050250 0.232873
vn 0.008163 0.204076 0.978921
vn 0.911946 -0.373884 0.169013
vn 0.839362 -0.543491 0.009476
vn 0.990244 0.139345 0.000491
vn 0.983166 0.179854 0.032220
vn 0.053076 0.998579 -0.004759
vn 0.645602 0.247548 0.722439
vn 0.836655 0.239624 0.492534
vn 0.073473 0.997286 -0.004742
vn -0.908970 -0.373884 0.184349
vn -0.981458 0.185627 0.047776
vn -0.989862 0.140918 0.017747
vn -0.839081 -0.543493 0.023613
vn 0.002083 -0.968943 0.247276
vn 0.000093 -0.999931 0.011759
vn 0.890189 -0.442179 -0.109737
vn 0.638160 -0.700289 -0.319918
vn 0.782494 0.619101 0.066465
vn 0.971255 0.214719 -0.102756
vn -0.005238 0.991730 -0.128237
vn 0.001147 0.990684 0.136178
vn -0.891908 -0.442185 -0.094727
vn -0.972188 0.217646 -0.086487
vn -0.781259 0.619105 0.079639
vn -0.643462 -0.700287 -0.309120
vn -0.001098 -0.991360 -0.131168
vn -0.002868 -0.940375 -0.340129
vn 0.860722 0.235846 0.451148
vn 0.489896 0.842796 0.222926
vn -0.008810 0.982707 -0.184958
vn 0.687475 -0.694345 0.212750
vn 0.002521 -0.953873 0.300200
vn 0.989406 -0.043307 0.138564
vn 0.989406 -0.043307 0.138564
vn 0.000579 0.997510 0.070517
vn 0.439594 0.896213 0.059659
vn -0.986934 -0.043293 0.155197
vn -0.986935 -0.043293 0.155197
vn -0.438549 0.896203 0.067053
vn -0.967151 0.050246 0.249189
vn -0.967151 0.050246 0.249189
vn -0.683792 -0.694349 0.224295
vn -0.187212 -0.829925 -0.525525
vn -0.009097 -0.657988 -0.752973
vn -0.814564 0.270892 0.512935
vn -0.081622 0.996663 0.000012
vn -0.313109 0.933272 -0.175970
vn -0.566977 0.775477 -0.277801
vn -0.670251 -0.266168 0.692761
vn -0.078480 0.996293 0.035219
vn 0.999600 -0.003302 0.028084
vn 0.999600 -0.003302 0.028084
vn 0.168859 0.958850 0.228241
vn 0.001962 0.972495 0.232915
vn -0.164991 0.958849 0.231053
vn -0.998985 -0.003285 0.044927
vn -0.998985 -0.003285 0.044927
vn 0.938067 -0.143153 0.315495
vn -0.310225 0.941615 0.130847
vn 0.818286 -0.574473 -0.019697
vn 0.151259 0.976617 -0.152774
vn -0.577822 0.807335 -0.119717
vn 0.901147 0.216291 -0.375703
vn -0.265883 0.918978 -0.291181
vn -0.143194 0.977961 -0.151946
vn 0.270328 0.913545 -0.303906
vn 0.578162 0.806178 -0.125722
vn -0.897498 0.231068 -0.375639
vn -0.820680 -0.571314 -0.009225
vn 0.297336 0.944021 0.142880
vn -0.930659 -0.166112 0.326008
vn 0.078645 0.117179 0.989992
vn 0.075111 0.116527 0.990343
vn 0.495054 -0.868794 0.010905
vn 0.386542 -0.920496 0.057201
vn -0.319816 0.941668 -0.104783
vn -0.473171 0.876888 -0.084719
vn 0.610373 -0.789412 -0.065361
vn -0.473427 0.142395 -0.869247
vn -0.479610 0.130101 -0.867783
vn -0.577745 0.811217 -0.090203
vn 0.607882 0.784941 -0.119777
vn 0.493574 0.864472 -0.095250
vn 0.451344 0.098678 -0.886877
vn 0.447972 0.105535 -0.887797
vn -0.488402 -0.872521 0.013052
vn -0.608323 -0.791385 -0.060439
vn -0.150278 -0.428309 0.891049
vn -0.154911 -0.410970 0.898391
vn 0.638247 0.764444 -0.090913
vn -0.392493 -0.918117 0.054868
vn -0.304613 -0.082995 0.948853
vn -0.274391 -0.062152 0.959608
vn 0.108563 -0.993999 0.013386
vn 0.122118 -0.990986 0.055089
vn -0.147998 0.983592 -0.103164
vn -0.180573 0.982021 -0.055020
vn 0.108680 -0.993578 -0.031477
vn -0.153219 0.541076 -0.826898
vn -0.014486 0.631145 -0.775530
vn -0.188414 0.981136 -0.043267
vn 0.206307 0.974847 -0.084328
vn 0.206307 0.974847 -0.084328
vn -0.010714 0.562604 -0.826657
vn 0.124691 0.483865 -0.866214
vn -0.109234 -0.994002 0.005210
vn -0.110485 -0.993240 -0.035595
vn 0.055320 -0.891685 0.449264
vn 0.061024 -0.896644 0.438527
vn -0.125171 -0.991144 0.044339
vn 0.068492 -0.997585 0.011534
vn 0.081259 -0.995069 0.056870
vn -0.079962 0.994027 -0.074265
vn -0.078783 0.991804 -0.100587
vn -0.078783 0.991804 -0.100587
vn -0.081569 0.996014 -0.036098
vn -0.018529 -0.999124 -0.037511
vn -0.082011 0.996316 -0.025066
vn -0.082011 0.996316 -0.025066
vn 0.075356 0.995946 -0.049131
vn 0.075356 0.995946 -0.049131
vn 0.075356 0.995946 -0.049131
vn 0.075356 0.995946 -0.049131
vn -0.069385 -0.997582 0.003961
vn 0.018911 -0.998836 -0.044379
vn -0.081688 -0.995698 0.043730
vn -0.054717 0.003698 0.998495
vn 0.179316 0.100547 0.978640
vn -0.036235 -0.998792 -0.033200
vn 0.058355 -0.992064 0.111370
vn -0.048890 0.990459 -0.128842
vn -0.063856 0.986843 -0.148539
vn -0.039325 -0.998506 -0.037935
vn -0.080150 0.711391 -0.698211
vn 0.014118 0.688571 -0.725031
vn -0.143081 0.722688 -0.676203
vn -0.143081 0.722688 -0.676203
vn 0.020845 0.999115 -0.036537
vn 0.029941 0.996214 -0.081612
vn -0.028710 0.998890 -0.037356
vn -0.038146 0.615821 -0.786962
vn 0.072914 0.624978 -0.777230
vn 0.037970 -0.998435 -0.041071
vn 0.040769 -0.998142 -0.045274
vn -0.212351 -0.793949 0.569695
vn -0.075451 -0.861817 0.501577
vn 0.038925 0.995327 -0.088364
vn -0.057838 -0.993041 0.102584
vn 0.154293 0.987532 -0.031204
vn 0.154293 0.987532 -0.031204
vn 0.154293 0.987532 -0.031204
vn 0.154293 0.987532 -0.031204
vn 0.100018 0.994458 -0.032405
vn 0.100018 0.994458 -0.032405
vn 0.100018 0.994458 -0.032405
vn 0.100018 0.994458 -0.032405
s 1
g pCube1
usemtl initialShadingGroup
f 1/1/1 21/2/2 22/3/3 3/4/4
f 3/4/4 22/3/3 29/7/5 30/8/6
f 5/17/7 23/16/8 24/12/9 7/11/10
f 33/5/11 34/6/12 21/2/2 1/1/1
f 2/25/13 38/26/14 39/27/15 4/28/16
s 3
f 32/15/17 26/10/18 27/9/19 31/18/20
s 1
f 9/63/21 17/64/22 18/61/23 10/60/24
f 98/44/25 97/199/26 99/200/27 100/47/28
f 12/90/29 11/86/30 19/88/31 20/91/32
f 9/14/21 35/13/33 36/21/34 17/22/22
f 13/170/35 43/171/36 44/172/37 14/173/38
f 40/176/39 14/173/38 44/172/37 45/177/40
f 16/178/41 15/179/42 46/180/43 47/181/44
f 13/33/35 37/34/45 48/30/46 43/29/36
f 17/36/22 13/33/35 14/40/38 18/41/23
f 100/47/28 99/200/27 101/51/47 102/52/48
f 20/39/32 19/42/31 15/43/42 16/38/41
f 17/36/22 36/37/34 37/34/45 13/33/35
f 21/186/2 9/63/21 10/60/24 22/187/3
f 42/65/49 29/66/5 22/67/3 10/68/24
f 24/188/9 23/69/8 11/70/30 12/189/29
f 21/2/2 34/6/12 35/13/33 9/14/21
f 33/5/11 1/1/1 26/10/50 32/15/51
f 1/1/1 3/4/4 27/9/52 26/10/53
f 3/4/4 30/8/6 31/18/54 27/9/55
f 5/17/7 7/11/10 25/20/56 28/23/57
f 30/8/6 29/7/5 23/16/8 5/17/7
f 31/18/54 30/8/6 5/17/7 28/23/58
s 3
f 25/20/59 32/15/17 31/18/20 28/23/60
s 1
f 7/11/10 33/5/11 32/15/51 25/20/61
f 7/11/10 24/12/9 34/6/12 33/5/11
f 35/13/33 34/6/12 24/12/9 12/19/29
f 36/21/34 35/13/33 12/19/29 20/24/32
f 37/34/45 36/37/34 20/39/32 16/38/41
f 48/30/46 37/34/45 16/38/41 47/35/44
f 39/27/15 38/26/14 8/31/62 6/32/63
f 15/179/42 40/182/39 45/183/40 46/180/43
f 104/71/64 103/72/65 105/73/66 106/74/67
f 108/75/68 107/76/69 103/72/65 104/71/64
f 23/69/8 29/66/5 42/65/49 11/70/30
f 43/171/36 2/174/70 4/175/71 44/172/37
f 45/92/40 44/93/37 4/94/72 39/95/73
f 46/96/43 45/92/40 39/95/73 6/97/74
f 47/181/44 46/180/43 6/184/75 8/185/76
f 38/26/14 48/30/46 47/35/44 8/31/62
f 43/29/36 48/30/46 38/26/14 2/25/13
f 42/59/49 10/60/24 49/58/77 50/206/78
f 10/60/24 18/61/23 51/62/79 49/58/77
f 41/106/80 42/111/49 50/112/78 52/195/81
f 18/98/23 14/99/38 53/196/82 51/197/79
f 14/99/38 40/102/39 54/194/83 53/196/82
f 40/102/39 41/106/80 52/195/81 54/194/83
f 41/106/84 40/102/39 57/193/85 55/190/86
f 40/102/39 15/114/42 58/192/87 57/193/85
f 15/114/42 19/120/31 56/121/88 58/192/87
f 11/86/30 42/87/49 59/85/89 60/208/90
f 42/111/49 41/106/84 55/190/86 59/191/89
f 19/88/31 11/86/30 60/208/90 56/89/88
f 50/57/78 49/205/77 61/56/91 62/55/92
f 49/155/77 51/101/79 63/105/93 61/152/94
f 52/107/81 50/198/78 62/119/95 64/113/96
f 51/101/79 53/202/82 65/137/97 63/105/93
f 53/100/82 54/103/83 66/108/98 65/104/99
f 54/103/83 52/107/81 64/113/96 66/108/100
f 55/110/86 57/109/85 69/116/101 67/117/102
f 57/109/85 58/204/87 70/203/103 69/116/104
f 58/115/87 56/166/88 68/126/105 70/122/106
f 60/84/90 59/207/89 71/83/107 72/82/108
f 59/118/89 55/110/86 67/117/102 71/123/109
f 56/166/88 60/167/90 72/163/110 68/126/105
f 62/55/92 61/56/91 73/54/111 74/53/112
f 61/152/94 63/105/93 75/153/113 73/154/114
f 64/113/96 62/119/95 74/124/115 76/125/116
f 63/105/93 65/137/97 77/140/117 75/153/113
f 65/137/99 66/138/98 78/139/118 77/140/119
f 66/108/100 64/113/96 76/125/116 78/156/120
f 67/117/102 69/116/101 81/159/121 79/127/122
f 69/145/104 70/122/103 82/146/123 81/147/124
f 70/122/106 68/126/105 80/162/125 82/146/126
f 72/82/108 71/83/107 83/81/127 84/80/128
f 68/126/105 72/163/110 84/164/129 80/162/125
f 73/154/114 75/153/113 87/50/130 85/49/131
s 8
f 76/125/132 74/124/133 86/129/134 88/130/135
s 1
f 75/153/113 77/140/117 89/141/136 87/50/130
s 8
f 78/156/137 76/125/132 88/130/135 90/157/138
s off
f 79/127/139 81/159/140 93/160/141 91/131/142
s 1
f 82/146/126 80/162/125 92/165/143 94/149/144
f 80/162/125 84/164/129 96/168/145 92/165/143
f 86/48/146 85/201/147 97/199/26 98/44/25
f 85/49/131 87/50/130 99/46/148 97/45/149
f 88/130/150 86/129/151 98/133/25 100/134/28
f 87/50/130 89/141/136 101/144/152 99/46/148
f 89/141/153 90/142/154 102/143/155 101/144/156
f 90/157/157 88/130/150 100/134/28 102/158/48
f 91/131/158 93/160/159 105/161/66 103/135/65
f 93/148/160 94/149/161 106/150/67 105/151/66
f 94/149/144 92/165/143 104/169/162 106/150/163
f 96/77/164 95/78/165 107/76/69 108/75/68
f 95/132/166 91/131/158 103/135/65 107/136/69
f 92/79/143 96/77/145 108/75/167 104/71/162
f 74/53/112 73/54/111 85/201/147 86/48/146
f 84/80/128 83/81/127 95/78/165 96/77/164
f 89/141/153 77/140/119 78/139/118 90/142/154
f 93/148/160 81/147/124 82/146/123 94/149/161
s off
f 83/128/168 71/123/169 67/117/170 79/127/171
f 95/132/172 83/128/173 79/127/174 91/131/175
