# This file uses centimeters as units for non-parametric coordinates.

mtllib UFO.mtl
g default
v 0.577955 1.375480 -0.484961
v 0.131012 1.375480 -0.743004
v -0.377233 1.375480 -0.653387
v -0.708966 1.375480 -0.258043
v -0.708966 1.375480 0.258042
v -0.377233 1.375480 0.653387
v 0.131012 1.375480 0.743004
v 0.577954 1.375480 0.484961
v 0.754466 1.375480 0.000000
v 1.099335 1.515054 -0.922451
v 0.249199 1.515054 -1.413277
v -0.717540 1.515054 -1.242815
v -1.348533 1.515054 -0.490826
v -1.348534 1.515054 0.490826
v -0.717540 1.515054 1.242815
v 0.249199 1.515054 1.413277
v 1.099334 1.515054 0.922451
v 1.435079 1.515054 0.000000
v 1.513105 1.657845 -1.269645
v 0.342993 1.657845 -1.945209
v -0.987609 1.657845 -1.710589
v -1.856097 1.657845 -0.675564
v -1.856097 1.657845 0.675564
v -0.987609 1.657845 1.710588
v 0.342993 1.657845 1.945209
v 1.513104 1.657845 1.269645
v 1.975217 1.657845 0.000000
v 2.032778 2.012310 -1.714436
v 0.452745 2.012310 -2.626669
v -1.344003 2.012310 -2.309854
v -2.516747 2.012310 -0.912233
v -2.516747 2.012310 0.912232
v -1.344003 2.012310 2.309854
v 0.452744 2.012310 2.626669
v 2.032777 2.012310 1.714436
v 2.656781 2.012310 0.000000
v 2.421650 2.498207 -2.071395
v 0.513162 2.453606 -3.173562
v -1.657090 2.402888 -2.790784
v -3.073621 2.369784 -1.102167
v -3.073621 2.369784 1.102166
v -1.657090 2.402888 2.790783
v 0.513161 2.453606 3.173562
v 2.421649 2.498207 2.071396
v 3.175369 2.515821 0.000000
v 0.907178 2.820427 -0.875310
v 0.090550 2.774891 -1.341053
v -0.838084 2.723111 -1.179303
v -1.444207 2.689314 -0.465743
v -1.444207 2.689314 0.465743
v -0.838084 2.723111 1.179302
v 0.090550 2.774891 1.341053
v 0.907178 2.820427 0.875310
v 1.229690 2.838410 -0.000000
v 0.847235 3.215056 -0.815337
v 0.086561 3.172641 -1.249168
v -0.778447 3.124409 -1.098500
v -1.343040 3.092927 -0.433832
v -1.343040 3.092927 0.433831
v -0.778447 3.124409 1.098500
v 0.086561 3.172641 1.249168
v 0.847235 3.215056 0.815337
v 1.147649 3.231807 -0.000000
v 0.594582 3.516707 -0.596279
v 0.038279 3.485687 -0.913552
v -0.594325 3.450414 -0.803364
v -1.007228 3.427390 -0.317273
v -1.007228 3.427390 0.317273
v -0.594325 3.450414 0.803364
v 0.038279 3.485687 0.913552
v 0.594581 3.516707 0.596279
v 0.814283 3.528957 -0.000000
v 0.340241 3.743744 -0.381567
v -0.015745 3.723894 -0.584594
v -0.420557 3.701322 -0.514084
v -0.684779 3.686589 -0.203028
v -0.684779 3.686589 0.203027
v -0.420557 3.701322 0.514084
v -0.015745 3.723894 0.584594
v 0.340241 3.743744 0.381567
v 0.480831 3.751583 -0.000000
v 0.000000 1.303007 0.000000
v -0.114385 3.845381 -0.000000
v -0.545119 3.725469 -0.061838
v -0.545119 3.725469 0.078409
v -0.438794 3.755069 0.008285
v -0.973548 4.573250 0.274558
v -0.973548 4.573250 0.416753
v -0.868124 4.592366 0.345656
v -0.642473 4.313984 0.326692
v -0.510318 4.337947 0.415818
v -0.617778 4.299535 0.481962
v -0.500082 4.021582 -0.219879
v -0.367926 4.045545 -0.130754
v -0.488268 4.014670 -0.052622
v 0.420724 1.432672 0.878350
v 0.550311 1.432672 0.803533
v 0.701480 1.473140 0.930379
v 0.454992 1.473140 1.072690
v 0.775123 0.958029 1.334627
v 0.904710 0.958029 1.259810
v 1.055879 0.998498 1.386656
v 0.809390 0.998498 1.528967
v 0.549527 1.434294 -0.812572
v 0.428944 1.434294 -0.882190
v 0.460831 1.471951 -1.063026
v 0.690193 1.471951 -0.930604
v 0.863944 1.011117 -1.199597
v 0.743361 1.011117 -1.269216
v 0.775247 1.048773 -1.450052
v 1.004609 1.048773 -1.317630
v -0.979453 1.434509 -0.068932
v -0.979453 1.434509 0.068932
v -1.150303 1.471794 0.131117
v -1.150304 1.471794 -0.131117
v -1.302499 0.942037 -0.068933
v -1.302499 0.942037 0.068932
v -1.473350 0.979322 0.131116
v -1.473350 0.979322 -0.131117
vt 0.739668 0.732419
vt 0.757795 0.687950
vt 0.790317 0.687959
vt 0.765552 0.753389
vt 0.720470 0.716224
vt 0.731569 0.686954
vt 0.743107 0.641788
vt 0.768138 0.622568
vt 0.709184 0.707350
vt 0.717291 0.686592
vt 0.722639 0.656832
vt 0.710871 0.665281
vt 0.016718 0.382334
vt 0.061287 0.259901
vt 0.166690 0.317637
vt 0.128295 0.416099
vt 0.140989 0.156123
vt 0.232767 0.236411
vt 0.260388 0.373000
vt 0.232903 0.446968
vt 0.005185 0.514735
vt 0.123063 0.522874
vt 0.308301 0.311698
vt 0.068033 0.000049
vt 0.033145 0.011338
vt 0.228321 0.527148
vt 0.366594 0.372539
vt 0.062129 0.009110
vt 0.051518 0.012543
vt 0.314305 0.530935
vt 0.064379 0.030434
vt 0.058843 0.015616
vt 0.217463 0.979928
vt 0.145445 0.882660
vt 0.243839 0.812404
vt 0.309621 0.896701
vt 0.079070 0.771816
vt 0.187075 0.724618
vt 0.318045 0.747585
vt 0.373159 0.805975
vt 0.275203 0.681023
vt 0.374277 0.690839
vt 0.412411 0.727543
vt 0.345079 0.643751
vt 0.464025 0.152069
vt 0.472721 0.149255
vt 0.480767 0.190235
vt 0.470783 0.194507
vt 0.529843 0.217286
vt 0.521023 0.222317
vt 0.541105 0.254891
vt 0.532288 0.257744
vt 0.606209 0.212957
vt 0.591868 0.211487
vt 0.593623 0.139253
vt 0.607964 0.140724
vt 0.035215 0.092844
vt 0.024001 0.098546
vt 0.000000 0.034474
vt 0.011214 0.028773
vt 0.996994 0.179566
vt 0.988514 0.182310
vt 0.961194 0.117520
vt 0.969675 0.114776
vt 0.441186 0.064829
vt 0.425055 0.070048
vt 0.397736 0.005258
vt 0.413867 0.000038
vt 0.106044 0.009031
vt 0.101574 0.016773
vt 0.089964 0.014726
vt 0.098466 0.000000
vt 0.687971 0.669017
vt 0.676622 0.670161
vt 0.669052 0.654682
vt 0.692007 0.652575
vt 0.684067 0.685377
vt 0.668819 0.678759
vt 0.653633 0.672148
vt 0.662446 0.641061
vt 0.695715 0.638618
vt 0.696240 0.661299
vt 0.695090 0.665694
vt 0.697426 0.675212
vt 0.662069 0.682819
vt 0.658019 0.681131
vt 0.640453 0.666491
vt 0.650121 0.616588
vt 0.702307 0.614089
vt 0.701280 0.664692
vt 0.697696 0.667398
vt 0.700700 0.686091
vt 0.668403 0.690526
vt 0.661963 0.686053
vt 0.652511 0.696202
vt 0.657713 0.687471
vt 0.638885 0.701261
vt 0.616765 0.657634
vt 0.696386 0.696564
vt 0.675266 0.699854
vt 0.666780 0.714842
vt 0.659616 0.728139
vt 0.615242 0.708848
vt 0.591671 0.649739
vt 0.638026 0.592651
vt 0.686443 0.702124
vt 0.689501 0.718631
vt 0.692661 0.732777
vt 0.646034 0.751758
vt 0.590353 0.715522
vt 0.699790 0.707298
vt 0.696122 0.704122
vt 0.693197 0.705778
vt 0.697897 0.757771
vt 0.632509 0.774887
vt 0.694126 0.710513
vt 0.119873 0.004030
vt 0.119873 0.012882
vt 0.108904 0.016874
vt 0.108904 0.000038
vt 0.075828 0.018026
vt 0.071024 0.009706
vt 0.079168 0.000000
vt 0.088305 0.015826
vt 0.921169 0.882934
vt 0.746860 0.983599
vt 0.708261 0.816229
vt 0.782847 0.773691
vt 0.548642 0.948638
vt 0.623445 0.801455
vt 0.990009 0.693745
vt 0.812303 0.693745
vt 0.419265 0.794410
vt 0.568086 0.736283
vt 0.921169 0.504557
vt 0.782847 0.613800
vt 0.419265 0.593080
vt 0.568086 0.651207
vt 0.746860 0.403892
vt 0.708261 0.571262
vt 0.548642 0.438852
vt 0.623445 0.586035
vt 0.510572 0.428950
vt 0.494973 0.480423
vt 0.432083 0.426846
vt 0.454815 0.513331
vt 0.496156 0.377357
vt 0.404923 0.515292
vt 0.457066 0.343119
vt 0.409043 0.345970
vt 0.338177 0.418391
vt 0.000000 0.008995
vt 0.000000 0.000026
vt 0.006650 0.004511
vt 0.710989 0.586134
vt 0.704882 0.786245
vt 0.028837 0.647877
vt 0.144817 0.627750
vt 0.243990 0.606823
vt 0.324051 0.589489
vt 0.245563 0.078698
vt 0.320438 0.177944
vt 0.357192 0.025533
vt 0.420451 0.140201
vt 0.374023 0.268890
vt 0.449398 0.250310
vt 0.923315 0.059195
vt 0.932452 0.061180
vt 0.955315 0.102281
vt 0.945136 0.100420
vt 0.963648 0.148405
vt 0.953886 0.145150
vt 0.954829 0.193737
vt 0.946403 0.193271
vt 0.955249 0.063453
vt 0.947698 0.069875
vt 0.909110 0.039315
vt 0.915134 0.034192
vt 0.982989 0.103026
vt 0.975438 0.109447
vt 0.996043 0.147030
vt 0.990603 0.153704
vt 0.000000 0.012386
vt 0.009033 0.009464
vt 0.063574 0.072231
vt 0.054541 0.075153
vt 0.017027 0.000021
vt 0.071568 0.062789
vt 0.769728 0.093222
vt 0.752857 0.093222
vt 0.777115 0.013901
vt 0.793987 0.013901
vt 0.747013 0.197827
vt 0.738652 0.197827
vt 0.760452 0.126189
vt 0.768813 0.126189
vt 0.756766 0.204202
vt 0.778566 0.132564
vt 0.942254 0.000051
vt 0.957901 0.000051
vt 0.979349 0.070532
vt 0.963703 0.070532
vt 0.415957 0.058863
vt 0.407445 0.067238
vt 0.359856 0.008386
vt 0.368368 0.000011
vt 0.975399 0.000047
vt 0.988083 0.001565
vt 0.995593 0.073383
vt 0.982909 0.071866
vt 0.319413 0.472490
vn 0.106606 -0.977006 -0.184647
vn 0.106606 -0.977006 -0.184647
vn 0.106606 -0.977006 -0.184647
vn 0.106606 -0.977006 -0.184647
vn -0.011993 -0.978505 -0.205873
vn -0.100445 -0.979614 -0.173976
vn -0.118242 -0.971636 -0.204801
vn 0.031073 -0.970253 -0.240092
vn -0.172306 -0.978507 -0.113292
vn -0.223461 -0.970254 -0.093128
vn -0.213213 -0.977006 0.000000
vn -0.213213 -0.977006 0.000000
vn -0.213213 -0.977006 0.000000
vn -0.213213 -0.977006 0.000000
vn -0.172306 -0.978507 0.113292
vn -0.100445 -0.979614 0.173976
vn -0.118242 -0.971635 0.204801
vn -0.223461 -0.970254 0.093128
vn -0.012245 -0.978493 0.205915
vn 0.031027 -0.970246 0.240125
vn 0.106607 -0.977006 0.184648
vn 0.106607 -0.977006 0.184648
vn 0.106607 -0.977006 0.184648
vn 0.106607 -0.977006 0.184648
vn 0.184450 -0.978493 0.092353
vn 0.200890 -0.979614 0.000000
vn 0.236483 -0.971636 0.000000
vn 0.192441 -0.970246 0.146933
vn 0.184287 -0.978505 -0.092550
vn 0.192389 -0.970253 -0.146956
vn 0.044381 -0.966788 -0.251698
vn 0.195786 -0.966788 -0.164284
vn -0.127790 -0.966788 -0.221339
vn -0.240167 -0.966788 -0.087414
vn -0.240167 -0.966788 0.087414
vn -0.127790 -0.966788 0.221339
vn 0.044381 -0.966788 0.251698
vn 0.195786 -0.966788 0.164284
vn 0.255580 -0.966788 0.000000
vn 0.352821 -0.887859 -0.295337
vn 0.080152 -0.889532 -0.449787
vn 0.111344 -0.828248 -0.549189
vn 0.459488 -0.805802 -0.373570
vn -0.225987 -0.891397 -0.392862
vn -0.250077 -0.852684 -0.458685
vn -0.423576 -0.892593 -0.154469
vn -0.464916 -0.867961 -0.174634
vn -0.423576 -0.892593 0.154469
vn -0.464916 -0.867961 0.174634
vn -0.225987 -0.891397 0.392862
vn -0.250077 -0.852684 0.458685
vn 0.080152 -0.889532 0.449787
vn 0.111344 -0.828248 0.549189
vn 0.352821 -0.887859 0.295337
vn 0.459488 -0.805802 0.373570
vn 0.461406 -0.887189 0.000000
vn 0.604366 -0.796707 0.000000
vn 0.132473 -0.779523 -0.612205
vn 0.525851 -0.739297 -0.420618
vn -0.265524 -0.823025 -0.502122
vn -0.492600 -0.849682 -0.188109
vn -0.492600 -0.849682 0.188109
vn -0.265524 -0.823025 0.502122
vn 0.132473 -0.779523 0.612205
vn 0.525851 -0.739297 0.420619
vn 0.690789 -0.723057 0.000000
vn 0.112846 0.986532 -0.118409
vn 0.002823 0.985084 -0.172053
vn 0.001574 0.985073 -0.172128
vn 0.112405 0.986528 -0.118863
vn -0.109148 0.983710 -0.142833
vn -0.110249 0.983703 -0.142034
vn -0.175546 0.982968 -0.054378
vn -0.175728 0.982967 -0.053804
vn -0.175546 0.982968 0.054378
vn -0.175728 0.982967 0.053803
vn -0.109148 0.983710 0.142833
vn -0.110249 0.983703 0.142034
vn 0.002823 0.985084 0.172053
vn 0.001574 0.985073 0.172128
vn 0.112846 0.986532 0.118409
vn 0.112405 0.986528 0.118863
vn 0.159680 0.987169 0.000000
vn 0.159680 0.987169 0.000000
vn 0.726851 0.209793 -0.653968
vn 0.124390 0.224520 -0.966498
vn 0.130849 0.480422 -0.867222
vn 0.659990 0.480722 -0.577338
vn -0.514702 0.242099 -0.822478
vn -0.449298 0.483406 -0.751299
vn -0.913040 0.254083 -0.319060
vn -0.822120 0.486863 -0.295098
vn -0.913040 0.254083 0.319060
vn -0.822120 0.486863 0.295098
vn -0.514702 0.242099 0.822478
vn -0.449298 0.483406 0.751299
vn 0.124389 0.224520 0.966498
vn 0.130848 0.480422 0.867222
vn 0.726851 0.209793 0.653968
vn 0.659990 0.480722 0.577338
vn 0.978939 0.204152 0.000000
vn 0.876293 0.481778 0.000000
vn 0.075884 0.762454 -0.642578
vn 0.468139 0.772725 -0.428650
vn -0.351641 0.754595 -0.554017
vn -0.623306 0.751387 -0.216579
vn -0.623306 0.751387 0.216579
vn -0.351641 0.754595 0.554017
vn 0.075884 0.762454 0.642578
vn 0.468139 0.772725 0.428650
vn 0.628546 0.777772 0.000000
vn 0.043030 0.878315 -0.476143
vn 0.328659 0.890844 -0.313655
vn -0.276613 0.866119 -0.416321
vn -0.506118 0.843105 -0.181711
vn -0.506578 0.842748 0.182085
vn -0.276613 0.866119 0.416321
vn 0.043030 0.878315 0.476143
vn 0.328659 0.890844 0.313655
vn 0.443432 0.896308 0.000000
vn 0.016604 -0.995418 -0.094167
vn 0.073249 -0.995418 -0.061463
vn -0.000000 -1.000000 -0.000000
vn -0.047810 -0.995418 -0.082809
vn -0.089853 -0.995418 -0.032704
vn -0.089853 -0.995418 0.032704
vn -0.047810 -0.995418 0.082809
vn 0.016604 -0.995418 0.094166
vn 0.073249 -0.995418 0.061463
vn 0.095619 -0.995418 -0.000000
vn -0.030987 0.999520 -0.000000
vn -0.385144 -0.523548 -0.759975
vn -0.526667 -0.339121 0.779499
vn 0.550077 0.834635 -0.028268
vn -0.426679 0.894523 0.133316
vn -0.476015 0.865046 -0.158447
vn 0.259412 0.965714 0.010061
vn -0.450999 -0.552063 0.701303
vn -0.400223 0.253874 -0.880550
vn 0.842027 0.471075 -0.262829
vn 0.782502 0.606812 0.139537
vn -0.610161 0.263285 -0.747251
vn -0.111384 -0.763501 0.636129
vn 0.106607 -0.977006 0.184648
vn 0.106607 -0.977006 0.184648
vn 0.106607 -0.977006 0.184648
vn 0.106607 -0.977006 0.184648
vn -0.319173 -0.769750 -0.552824
vn -0.319173 -0.769750 -0.552824
vn -0.319173 -0.769750 -0.552824
vn -0.319173 -0.769750 -0.552824
vn 0.660701 -0.201735 -0.723033
vn 0.660701 -0.201735 -0.723033
vn 0.660701 -0.201735 -0.723033
vn 0.660701 -0.201735 -0.723033
vn 0.319173 0.769749 0.552824
vn 0.319173 0.769749 0.552824
vn 0.319173 0.769749 0.552824
vn 0.319173 0.769749 0.552824
vn -0.874474 -0.420531 0.241762
vn -0.874474 -0.420531 0.241762
vn -0.874474 -0.420531 0.241762
vn -0.874474 -0.420531 0.241762
vn 0.106607 -0.977006 -0.184648
vn 0.106607 -0.977006 -0.184648
vn 0.106607 -0.977006 -0.184648
vn 0.106607 -0.977006 -0.184648
vn -0.325900 -0.758392 0.564475
vn -0.325900 -0.758392 0.564474
vn -0.325900 -0.758392 0.564474
vn -0.325900 -0.758392 0.564474
vn -0.871670 -0.425953 -0.242396
vn -0.871670 -0.425953 -0.242396
vn -0.871670 -0.425953 -0.242396
vn -0.871670 -0.425953 -0.242396
vn 0.325900 0.758391 -0.564475
vn 0.325900 0.758391 -0.564475
vn 0.325900 0.758391 -0.564475
vn 0.325900 0.758391 -0.564475
vn 0.660023 -0.177273 0.730030
vn 0.660023 -0.177273 0.730030
vn 0.660023 -0.177273 0.730030
vn 0.660023 -0.177273 0.730030
vn -0.213213 -0.977006 -0.000000
vn -0.213213 -0.977006 0.000000
vn -0.213213 -0.977006 -0.000000
vn -0.213213 -0.977006 0.000000
vn 0.836155 -0.548493 0.000000
vn 0.836155 -0.548493 0.000000
vn 0.836155 -0.548493 0.000000
vn 0.836155 -0.548493 0.000000
vn 0.297550 -0.195185 0.934541
vn 0.297550 -0.195185 0.934541
vn 0.297550 -0.195185 0.934541
vn 0.297550 -0.195185 0.934541
vn -0.836155 0.548493 0.000001
vn -0.836155 0.548493 0.000001
vn -0.836155 0.548493 0.000001
vn -0.836155 0.548493 0.000001
vn 0.297550 -0.195183 -0.934541
vn 0.297550 -0.195183 -0.934541
vn 0.297550 -0.195183 -0.934541
vn 0.297550 -0.195183 -0.934541
s off
g pSphere1
usemtl initialShadingGroup
f 108/69/1 109/70/2 110/71/3 111/72/4
s 1
f 2/73/5 3/74/6 12/75/7 11/76/8
f 3/74/6 4/78/9 13/79/10 12/75/7
s off
f 116/117/11 117/118/12 118/119/13 119/120/14
s 1
f 5/93/15 6/100/16 15/101/17 14/95/18
f 6/100/16 7/106/19 16/107/20 15/101/17
s off
f 100/121/21 101/122/22 102/123/23 103/124/24
s 1
f 8/99/25 9/92/26 18/10/27 17/9/28
f 9/92/26 1/84/29 10/12/30 18/10/27
f 10/12/30 11/76/8 20/81/31 19/11/32
f 11/76/8 12/75/7 21/80/33 20/81/31
f 12/75/7 13/79/10 22/87/34 21/80/33
f 13/79/10 14/95/18 23/97/35 22/87/34
f 14/95/18 15/101/17 24/102/36 23/97/35
f 15/101/17 16/107/20 25/108/37 24/102/36
f 16/107/20 17/9/28 26/5/38 25/108/37
f 17/9/28 18/10/27 27/6/39 26/5/38
f 18/10/27 10/12/30 19/11/32 27/6/39
s 4
f 19/11/40 20/81/41 29/89/42 28/7/43
f 20/81/41 21/80/44 30/88/45 29/89/42
f 21/80/44 22/87/46 31/98/47 30/88/45
f 22/87/46 23/97/48 32/103/49 31/98/47
f 23/97/48 24/102/50 33/109/51 32/103/49
f 24/102/50 25/108/52 34/114/53 33/109/51
f 25/108/52 26/5/54 35/1/55 34/114/53
f 26/5/54 27/6/56 36/2/57 35/1/55
f 27/6/56 19/11/40 28/7/43 36/2/57
f 28/7/43 29/89/42 38/155/58 37/8/59
f 29/89/42 30/88/45 39/105/60 38/155/58
f 30/88/45 31/98/47 40/104/61 39/105/60
f 31/98/47 32/103/49 41/110/62 40/104/61
f 32/103/49 33/109/51 42/115/63 41/110/62
f 33/109/51 34/114/53 43/156/64 42/115/63
f 34/114/53 35/1/55 44/4/65 43/156/64
f 35/1/55 36/2/57 45/3/66 44/4/65
f 36/2/57 28/7/43 37/8/59 45/3/66
s 5
f 37/125/67 38/126/68 47/127/69 46/128/70
f 38/126/68 39/129/71 48/130/72 47/127/69
f 39/129/71 40/133/73 49/134/74 48/130/72
f 40/133/73 41/137/75 50/138/76 49/134/74
f 41/137/75 42/141/77 51/142/78 50/138/76
f 42/141/77 43/139/79 52/140/80 51/142/78
f 43/139/79 44/135/81 53/136/82 52/140/80
f 44/135/81 45/131/83 54/132/84 53/136/82
f 45/131/83 37/125/67 46/128/70 54/132/84
s 6
f 46/37/85 47/157/86 56/158/87 55/38/88
f 47/157/86 48/21/89 57/22/90 56/158/87
f 48/21/89 49/13/91 58/16/92 57/22/90
f 49/13/91 50/14/93 59/15/94 58/16/92
f 50/14/93 51/17/95 60/18/96 59/15/94
f 51/17/95 52/161/97 61/162/98 60/18/96
f 52/161/97 53/163/99 62/164/100 61/162/98
f 53/33/99 54/34/101 63/35/102 62/36/100
f 54/34/101 46/37/85 55/38/88 63/35/102
f 55/38/88 56/158/87 65/159/103 64/41/104
f 56/158/87 57/22/90 66/26/105 65/159/103
f 57/22/90 58/16/92 67/20/106 66/26/105
f 58/16/92 59/15/94 68/19/107 67/20/106
f 59/15/94 60/18/96 69/23/108 68/19/107
f 60/18/96 61/162/98 70/165/109 69/23/108
f 61/162/98 62/164/100 71/166/110 70/165/109
f 62/36/100 63/35/102 72/39/111 71/40/110
f 63/35/102 55/38/88 64/41/104 72/39/111
f 64/41/104 65/159/103 74/160/112 73/44/113
f 65/159/103 66/26/105 75/30/114 74/160/112
f 66/26/105 67/20/106 76/211/115 75/30/114
f 67/20/106 68/19/107 77/151/116 76/211/115
f 68/19/107 69/23/108 78/27/117 77/151/116
f 69/23/108 70/165/109 79/150/118 78/27/117
f 70/165/109 71/166/110 80/149/119 79/150/118
f 71/40/110 72/39/111 81/42/120 80/43/119
f 72/39/111 64/41/104 73/44/113 81/42/120
s 7
f 2/73/121 1/84/122 82/77/123
f 3/74/124 2/73/121 82/77/123
f 4/78/125 3/74/124 82/77/123
f 5/93/126 4/78/125 82/77/123
f 6/100/127 5/93/126 82/77/123
f 7/106/128 6/100/127 82/77/123
f 8/99/129 7/106/128 82/77/123
f 9/92/130 8/99/129 82/77/123
f 1/84/122 9/92/130 82/77/123
s 6
f 73/143/113 74/144/112 83/145/131
f 74/144/112 75/146/114 83/145/131
f 75/146/114 76/148/115 83/145/131
f 87/152/132 88/153/133 89/154/134
f 77/151/116 78/27/117 83/145/131
f 78/27/117 79/150/118 83/145/131
f 79/150/118 80/149/119 83/145/131
f 80/149/119 81/147/120 83/145/131
f 81/147/120 73/143/113 83/145/131
f 76/25/115 77/24/116 85/28/135 84/29/136
f 77/24/116 83/31/131 86/32/137 85/28/135
f 83/31/131 76/25/115 84/29/136 86/32/137
f 84/45/136 85/46/135 95/47/138 93/48/139
f 85/167/135 86/168/137 94/169/140 95/170/138
f 86/181/137 84/182/136 93/180/139 94/179/140
f 91/175/141 90/176/142 87/177/132 89/178/134
f 92/172/143 91/171/141 89/173/134 88/174/133
f 90/50/142 92/49/143 88/51/133 87/52/132
f 94/179/140 93/180/139 90/176/142 91/175/141
f 95/170/138 94/169/140 91/171/141 92/172/143
f 93/48/139 95/47/138 92/49/143 90/50/142
s 1
f 7/106/19 8/99/25 97/112/144 96/113/145
f 8/99/25 17/9/28 98/111/146 97/112/144
f 17/9/28 16/107/20 99/116/147 98/111/146
f 16/107/20 7/106/19 96/113/145 99/116/147
s off
f 96/183/148 97/184/149 101/185/150 100/186/151
f 97/184/152 98/187/153 102/188/154 101/185/155
f 98/189/156 99/190/157 103/191/158 102/192/159
f 99/53/160 96/54/161 100/55/162 103/56/163
s 1
f 1/84/29 2/73/5 105/83/164 104/91/165
f 2/73/5 11/76/8 106/82/166 105/83/164
f 11/76/8 10/12/30 107/90/167 106/82/166
f 10/12/30 1/84/29 104/91/165 107/90/167
s off
f 104/193/168 105/194/169 109/195/170 108/196/171
f 105/57/172 106/58/173 110/59/174 109/60/175
f 106/199/176 107/200/177 111/201/178 110/202/179
f 107/197/180 104/193/181 108/196/182 111/198/183
s 1
f 4/78/9 5/93/15 113/94/184 112/85/185
f 5/93/15 14/95/18 114/96/186 113/94/184
f 14/95/18 13/79/10 115/86/187 114/96/186
f 13/79/10 4/78/9 112/85/185 115/86/187
s off
f 112/61/188 113/62/189 117/63/190 116/64/191
f 113/203/192 114/204/193 118/205/194 117/206/195
f 114/65/196 115/66/197 119/67/198 118/68/199
f 115/207/200 112/208/201 116/209/202 119/210/203
g default
v -0.946777 4.467670 0.272922
v -0.970685 4.449634 0.393980
v -0.914765 4.520710 0.479846
v -0.834936 4.609822 0.444654
v -0.811028 4.627857 0.323596
v -0.866948 4.556781 0.237730
v -1.056533 4.475440 0.205381
v -1.097943 4.444201 0.415060
v -1.001086 4.567309 0.563784
v -0.862819 4.721654 0.502831
v -0.821409 4.752893 0.293152
v -0.918266 4.629786 0.144428
v -1.165526 4.538085 0.175978
v -1.213342 4.502014 0.418093
v -1.101501 4.644166 0.589826
v -0.941844 4.822389 0.519443
v -0.894028 4.858460 0.277327
v -1.005869 4.716308 0.105595
v -1.244551 4.638820 0.192590
v -1.285961 4.607581 0.402268
v -1.189104 4.730689 0.550993
v -1.050837 4.885034 0.490039
v -1.009427 4.916273 0.280361
v -1.106284 4.793166 0.131636
v -1.272434 4.750653 0.250766
v -1.296342 4.732617 0.371824
v -1.240422 4.803693 0.457690
v -1.160593 4.892804 0.422499
v -1.136685 4.910840 0.301441
v -1.192606 4.839764 0.215575
v -0.865667 4.516857 0.360502
v -1.241703 4.843617 0.334919
vt 0.649509 0.250400
vt 0.649509 0.216368
vt 0.672197 0.216368
vt 0.672197 0.255664
vt 0.632901 0.236016
vt 0.632901 0.216368
vt 0.649509 0.182337
vt 0.672197 0.177073
vt 0.694884 0.216368
vt 0.694884 0.250400
vt 0.632901 0.196721
vt 0.694884 0.182337
vt 0.711493 0.216368
vt 0.711493 0.236016
vt 0.711493 0.196721
vt 0.795823 0.344861
vt 0.795823 0.311609
vt 0.817991 0.311609
vt 0.817991 0.350006
vt 0.779594 0.330807
vt 0.779594 0.311609
vt 0.795823 0.278357
vt 0.817991 0.273212
vt 0.840159 0.311609
vt 0.840159 0.344861
vt 0.779594 0.292411
vt 0.840159 0.278357
vt 0.856387 0.311609
vt 0.856387 0.330807
vt 0.856387 0.292411
vt 0.817512 0.052012
vt 0.899473 0.052012
vt 0.858492 0.122993
vt 0.787512 0.000051
vt 0.929473 0.000051
vt 0.940453 0.122993
vt 0.776531 0.122993
vt 0.899473 0.193973
vt 0.817512 0.193973
vt 0.929473 0.245934
vt 0.787512 0.245934
vt 0.978106 0.301203
vt 0.939664 0.301203
vt 0.958885 0.267910
vt 0.992177 0.325574
vt 0.925593 0.325574
vt 0.920442 0.267910
vt 0.997328 0.267910
vt 0.939664 0.234618
vt 0.978106 0.234618
vt 0.925592 0.210246
vt 0.992177 0.210246
vt 0.589030 0.149256
vt 0.459815 0.149256
vt 0.449820 0.074654
vt 0.599025 0.074654
vt 0.459815 0.000051
vt 0.589030 0.000051
vt 0.601338 0.139260
vt 0.601338 0.010045
vt 0.675941 0.000050
vt 0.675941 0.149255
vt 0.750543 0.010045
vt 0.750543 0.139260
vn 0.288010 -0.868175 -0.404131
vn 0.164561 -0.961302 0.220949
vn -0.258707 -0.925325 0.277209
vn -0.085198 -0.794435 -0.601344
vn 0.453305 -0.594302 0.664319
vn 0.147124 -0.409506 0.900367
vn 0.865498 -0.134176 0.482608
vn 0.726462 0.237203 0.644971
vn 0.988947 -0.041049 -0.142473
vn 0.899970 0.368093 -0.233582
vn 0.700203 -0.408049 -0.585843
vn 0.494140 -0.147726 -0.856739
vn -0.640127 -0.714566 0.282194
vn -0.448413 -0.569943 -0.688543
vn -0.191714 -0.144624 0.970737
vn 0.448413 0.569943 0.688543
vn 0.640127 0.714566 -0.282194
vn 0.191714 0.144624 -0.970737
vn -0.899970 -0.368093 0.233582
vn -0.726462 -0.237203 -0.644971
vn -0.494140 0.147726 0.856740
vn 0.085198 0.794435 0.601344
vn 0.258707 0.925325 -0.277209
vn -0.147124 0.409506 -0.900367
vn -0.988947 0.041049 0.142473
vn -0.865498 0.134176 -0.482608
vn -0.700203 0.408049 0.585843
vn -0.288010 0.868175 0.404131
vn -0.164561 0.961302 -0.220950
vn -0.453305 0.594302 -0.664319
vn 0.753839 -0.655055 0.051286
vn -0.753839 0.655055 -0.051286
s 1
g pSphere2
usemtl initialShadingGroup
f 120/243/204 121/242/205 127/245/206 126/246/207
f 121/216/205 122/217/208 128/213/209 127/212/206
f 122/217/208 123/222/210 129/218/211 128/213/209
f 123/250/210 124/249/212 130/251/213 129/252/211
f 124/231/212 125/232/214 131/228/215 130/227/213
f 125/232/214 120/237/204 126/233/207 131/228/215
f 126/264/207 127/265/206 133/266/216 132/267/217
f 127/212/206 128/213/209 134/214/218 133/215/216
f 128/213/209 129/218/211 135/219/219 134/214/218
f 129/270/211 130/271/213 136/272/220 135/273/219
f 130/227/213 131/228/215 137/229/221 136/230/220
f 131/228/215 126/233/207 132/234/217 137/229/221
f 132/267/217 133/266/216 139/268/222 138/269/223
f 133/215/216 134/214/218 140/220/224 139/221/222
f 134/214/218 135/219/219 141/223/225 140/220/224
f 135/273/219 136/272/220 142/274/226 141/275/225
f 136/230/220 137/229/221 143/235/227 142/236/226
f 137/229/221 132/234/217 138/238/223 143/235/227
f 138/256/223 139/257/222 145/254/228 144/253/229
f 139/221/222 140/220/224 146/224/230 145/225/228
f 140/220/224 141/223/225 147/226/231 146/224/230
f 141/262/225 142/263/226 148/261/232 147/260/231
f 142/236/226 143/235/227 149/239/233 148/240/232
f 143/235/227 138/238/223 144/241/229 149/239/233
f 121/242/205 120/243/204 150/244/234
f 122/248/208 121/242/205 150/244/234
f 123/250/210 122/248/208 150/244/234
f 124/249/212 123/250/210 150/244/234
f 125/247/214 124/249/212 150/244/234
f 120/243/204 125/247/214 150/244/234
f 144/253/229 145/254/228 151/255/235
f 145/254/228 146/258/230 151/255/235
f 146/258/230 147/260/231 151/255/235
f 147/260/231 148/261/232 151/255/235
f 148/261/232 149/259/233 151/255/235
f 149/259/233 144/253/229 151/255/235
