# This file uses centimeters as units for non-parametric coordinates.

mtllib billboard vertical.mtl
g default
v 0.516679 2.911352 -0.375389
v 0.197354 2.911352 -0.607393
v -0.197354 2.911352 -0.607393
v -0.516679 2.911354 -0.375390
v -0.638651 2.911354 0.000000
v -0.516679 2.911352 0.375389
v -0.197354 2.911352 0.607393
v 0.197354 2.911352 0.607393
v 0.516679 2.911352 0.375389
v 0.638651 2.911352 -0.000000
v -0.238325 15.474007 0.733484
v -0.623937 15.474007 0.453335
v -0.771223 15.474007 0.000019
v -0.623929 15.474009 -0.453326
v -0.238318 15.474007 -0.733494
v 0.238326 15.474007 -0.733484
v 0.623944 15.474007 -0.453322
v 0.771237 15.474007 -0.000000
v 0.623944 15.474007 0.453322
v 0.238326 15.474007 0.733484
v -2.212033 12.564492 0.271688
v -0.627460 12.564492 0.271688
v -2.212033 13.374154 0.271688
v -0.627460 13.374154 0.271688
v -2.212033 13.374154 -0.271688
v -0.627460 13.374154 -0.271688
v -2.212033 12.564492 -0.271688
v -0.627460 12.564492 -0.271688
v -2.212033 4.661585 0.271688
v -0.627461 4.661585 0.271688
v -2.212033 5.471247 0.271688
v -0.627461 5.471247 0.271688
v -2.212033 5.471247 -0.271688
v -0.627461 5.471247 -0.271688
v -2.212033 4.661585 -0.271688
v -0.627461 4.661585 -0.271688
vt 0.008199 0.259914
vt 0.008170 0.206773
vt 0.669836 0.198914
vt 0.669871 0.263090
vt 0.008006 0.153634
vt 0.669637 0.134744
vt 0.008092 0.313054
vt 0.669742 0.327261
vt 0.007706 0.100499
vt 0.669275 0.070580
vt 0.006309 0.525563
vt 0.006958 0.472448
vt 0.668372 0.519744
vt 0.667588 0.583886
vt 0.007472 0.419323
vt 0.668992 0.455591
vt 0.005525 0.578666
vt 0.666641 0.648013
vt 0.007850 0.366191
vt 0.669449 0.391429
vt 0.253155 0.882989
vt 0.288956 0.882989
vt 0.288956 0.936334
vt 0.253155 0.936334
vt 0.446244 0.921037
vt 0.482045 0.921037
vt 0.482045 0.974382
vt 0.446244 0.974382
vt 0.389085 0.893962
vt 0.424885 0.893962
vt 0.424885 0.947307
vt 0.389085 0.947307
vt 0.352013 0.890970
vt 0.387813 0.890970
vt 0.387813 0.944314
vt 0.352013 0.944314
vt 0.821653 0.219934
vt 0.839077 0.195952
vt 0.867269 0.186792
vt 0.895460 0.195952
vt 0.912884 0.219934
vt 0.912884 0.249576
vt 0.895460 0.273558
vt 0.867269 0.282718
vt 0.839077 0.273558
vt 0.821653 0.249576
vt 0.718360 0.581535
vt 0.718360 0.462533
vt 0.759167 0.462533
vt 0.759167 0.581535
vt 0.676103 0.462706
vt 0.676103 0.343704
vt 0.716911 0.343704
vt 0.716911 0.462706
vt 0.314941 0.992377
vt 0.314941 0.887977
vt 0.350742 0.887977
vt 0.350742 0.992377
vt 0.676103 0.581708
vt 0.676103 0.462706
vt 0.716911 0.462706
vt 0.716911 0.581708
vt 0.903730 0.447531
vt 0.882690 0.418571
vt 0.882690 0.382775
vt 0.903731 0.353815
vt 0.937775 0.342753
vt 0.971820 0.353815
vt 0.992860 0.382775
vt 0.992861 0.418571
vt 0.971820 0.447530
vt 0.937774 0.458592
vt 0.007270 0.047369
vt 0.668749 0.006421
vt 0.854519 0.570387
vt 0.854519 0.451385
vt 0.915325 0.451385
vt 0.915325 0.570387
vt 0.732445 0.462533
vt 0.732445 0.343531
vt 0.793251 0.343531
vt 0.793251 0.462533
vt 0.939032 0.577173
vt 0.939032 0.458171
vt 0.999838 0.458171
vt 0.999838 0.577173
vt 0.793482 0.555244
vt 0.793482 0.436242
vt 0.854288 0.436242
vt 0.854288 0.555244
vn 0.808971 -0.010553 -0.587754
vn 0.309003 -0.010553 -0.951002
vn 0.309003 -0.010553 -0.951002
vn 0.808971 -0.010553 -0.587754
vn -0.308997 -0.010553 -0.951005
vn -0.308997 -0.010553 -0.951004
vn -0.808979 -0.010553 -0.587744
vn -0.808979 -0.010553 -0.587744
vn -0.999944 -0.010553 -0.000004
vn -0.999944 -0.010553 -0.000005
vn -0.808971 -0.010553 0.587754
vn -0.808971 -0.010553 0.587754
vn -0.308991 -0.010553 0.951007
vn -0.308991 -0.010553 0.951007
vn 0.308996 -0.010553 0.951005
vn 0.308996 -0.010553 0.951005
vn 0.808971 -0.010553 0.587754
vn 0.808971 -0.010553 0.587754
vn 0.999944 -0.010553 0.000000
vn 0.999944 -0.010553 0.000000
vn -0.000001 -1.000000 -0.000000
vn -0.000001 -1.000000 -0.000000
vn -0.000001 -1.000000 -0.000000
vn -0.000001 -1.000000 -0.000000
vn -0.000001 -1.000000 -0.000000
vn -0.000001 -1.000000 -0.000000
vn -0.000001 -1.000000 -0.000000
vn -0.000001 -1.000000 -0.000000
vn -0.000001 -1.000000 -0.000000
vn -0.000001 -1.000000 -0.000000
vn 0.000000 0.000000 1.000000
vn 0.000000 0.000000 1.000000
vn 0.000000 0.000000 1.000000
vn 0.000000 0.000000 1.000000
vn 0.000000 1.000000 0.000000
vn 0.000000 1.000000 0.000000
vn 0.000000 1.000000 0.000000
vn 0.000000 1.000000 0.000000
vn 0.000000 0.000000 -1.000000
vn 0.000000 0.000000 -1.000000
vn 0.000000 0.000000 -1.000000
vn 0.000000 0.000000 -1.000000
vn 0.000000 -1.000000 0.000000
vn 0.000000 -1.000000 0.000000
vn 0.000000 -1.000000 0.000000
vn 0.000000 -1.000000 0.000000
vn 1.000000 0.000000 0.000000
vn 1.000000 0.000000 0.000000
vn 1.000000 0.000000 0.000000
vn 1.000000 0.000000 0.000000
vn -1.000000 0.000000 0.000000
vn -1.000000 0.000000 0.000000
vn -1.000000 0.000000 0.000000
vn -1.000000 0.000000 0.000000
vn 0.000000 0.000000 1.000000
vn 0.000000 0.000000 1.000000
vn 0.000000 0.000000 1.000000
vn 0.000000 0.000000 1.000000
vn 0.000000 1.000000 0.000000
vn 0.000000 1.000000 0.000000
vn 0.000000 1.000000 0.000000
vn 0.000000 1.000000 0.000000
vn 0.000000 0.000000 -1.000000
vn 0.000000 0.000000 -1.000000
vn 0.000000 0.000000 -1.000000
vn 0.000000 0.000000 -1.000000
vn 0.000000 -1.000000 0.000000
vn 0.000000 -1.000000 0.000000
vn 0.000000 -1.000000 0.000000
vn 0.000000 -1.000000 0.000000
vn 1.000000 0.000000 0.000000
vn 1.000000 0.000000 0.000000
vn 1.000000 0.000000 0.000000
vn 1.000000 0.000000 0.000000
vn -1.000000 0.000000 0.000000
vn -1.000000 0.000000 0.000000
vn -1.000000 0.000000 0.000000
vn -1.000000 0.000000 0.000000
vn 0.000000 1.000000 -0.000000
vn 0.000000 1.000000 -0.000000
vn 0.000000 1.000000 -0.000000
vn 0.000000 1.000000 -0.000000
vn 0.000000 1.000000 -0.000000
vn 0.000000 1.000000 -0.000000
vn 0.000000 1.000000 -0.000000
vn 0.000000 1.000000 -0.000000
vn 0.000000 1.000000 -0.000000
vn 0.000000 1.000000 -0.000000
s 1
g polySurface4
usemtl initialShadingGroup
f 1/15/1 2/19/2 16/20/3 17/16/4
f 2/19/2 3/7/5 15/8/6 16/20/3
f 3/7/5 4/1/7 14/4/8 15/8/6
f 4/1/7 5/2/9 13/3/10 14/4/8
f 5/2/9 6/5/11 12/6/12 13/3/10
f 6/5/11 7/9/13 11/10/14 12/6/12
f 7/9/13 8/73/15 20/74/16 11/10/14
f 8/17/15 9/11/17 19/14/18 20/18/16
f 9/11/17 10/12/19 18/13/20 19/14/18
f 10/12/19 1/15/1 17/16/4 18/13/20
s off
f 2/37/21 1/38/22 10/39/23 9/40/24 8/41/25 7/42/26 6/43/27 5/44/28 4/45/29 3/46/30
f 21/75/31 22/76/32 24/77/33 23/78/34
f 23/47/35 24/48/36 26/49/37 25/50/38
f 25/79/39 26/80/40 28/81/41 27/82/42
f 27/51/43 28/52/44 22/53/45 21/54/46
f 22/21/47 28/22/48 26/23/49 24/24/50
f 27/25/51 21/26/52 23/27/53 25/28/54
f 29/83/55 30/84/56 32/85/57 31/86/58
f 31/55/59 32/56/60 34/57/61 33/58/62
f 33/87/63 34/88/64 36/89/65 35/90/66
f 35/59/67 36/60/68 30/61/69 29/62/70
f 30/29/71 36/30/72 34/31/73 32/32/74
f 35/33/75 29/34/76 31/35/77 33/36/78
f 12/63/79 11/64/80 20/65/81 19/66/82 18/67/83 17/68/84 16/69/85 15/70/86 14/71/87 13/72/88
g default
v 0.651095 0.000336 -0.473049
v 0.248696 0.000336 -0.765409
v -0.248696 0.000336 -0.765409
v -0.651095 0.000336 -0.473048
v -0.804798 0.000336 0.000000
v -0.651095 0.000336 0.473049
v -0.248696 0.000336 0.765409
v 0.248696 0.000336 0.765408
v 0.651095 0.000336 0.473048
v 0.804798 0.000336 0.000000
v 1.302191 0.000336 -0.946097
v 0.497392 0.000336 -1.530817
v -0.497393 0.000336 -1.530817
v -1.302191 0.000336 -0.946097
v -1.609596 0.000336 0.000000
v -1.302191 0.000336 0.946097
v -0.497393 0.000336 1.530817
v 0.497393 0.000336 1.530817
v 1.302191 0.000336 0.946097
v 1.609596 0.000336 0.000000
v 1.302191 0.834939 -0.946097
v 0.497392 0.834939 -1.530817
v -0.497393 0.834939 -1.530817
v -1.302191 0.834939 -0.946097
v -1.609596 0.834939 0.000000
v -1.302191 0.834939 0.946097
v -0.497393 0.834939 1.530817
v 0.497393 0.834939 1.530817
v 1.302191 0.834939 0.946097
v 1.609596 0.834939 0.000000
v 0.516296 1.364142 -0.375111
v 0.197207 1.364142 -0.606942
v -0.197207 1.364142 -0.606942
v -0.516296 1.364142 -0.375111
v -0.638176 1.364142 -0.000000
v -0.516296 1.364142 0.375111
v -0.197207 1.364142 0.606942
v 0.197207 1.364142 0.606942
v 0.516296 1.364142 0.375110
v 0.638176 1.364142 -0.000000
v 0.000000 0.000336 0.000000
v 0.516296 2.716678 -0.375110
v 0.197207 2.716678 -0.606942
v -0.197207 2.716678 -0.606942
v -0.516296 2.716678 -0.375111
v -0.638176 2.716679 -0.000000
v -0.516296 2.716678 0.375111
v -0.197207 2.716678 0.606942
v 0.197207 2.716678 0.606942
v 0.516296 2.716678 0.375110
v 0.638176 2.716678 -0.000000
vt 0.703145 0.667973
vt 0.771414 0.669320
vt 0.746969 0.800191
vt 0.693443 0.798570
vt 0.839404 0.673465
vt 0.801644 0.804791
vt 0.704803 0.894260
vt 0.674123 0.894978
vt 0.634875 0.669636
vt 0.640452 0.799636
vt 0.906838 0.679887
vt 0.858149 0.812849
vt 0.734805 0.894426
vt 0.708322 0.981108
vt 0.682041 0.982587
vt 0.643169 0.896530
vt 0.763638 0.895573
vt 0.734686 0.979732
vt 0.655814 0.984197
vt 0.761185 0.978412
vt 0.367009 0.703707
vt 0.432689 0.691989
vt 0.478660 0.818818
vt 0.421590 0.831531
vt 0.499383 0.681913
vt 0.533697 0.809582
vt 0.552444 0.905984
vt 0.524310 0.910732
vt 0.302383 0.715251
vt 0.361824 0.848643
vt 0.566867 0.674331
vt 0.587407 0.803282
vt 0.581938 0.902043
vt 0.577240 0.989881
vt 0.550992 0.992003
vt 0.498143 0.916353
vt 0.612315 0.898890
vt 0.603436 0.987853
vt 0.524632 0.994169
vt 0.629619 0.985953
vt 0.725456 0.184692
vt 0.711815 0.203467
vt 0.676103 0.191864
vt 0.703385 0.154314
vt 0.747528 0.215071
vt 0.711815 0.226674
vt 0.676103 0.238278
vt 0.747528 0.177521
vt 0.747528 0.139971
vt 0.725456 0.245450
vt 0.703385 0.275828
vt 0.769599 0.184692
vt 0.791671 0.154314
vt 0.747528 0.252621
vt 0.747528 0.290171
vt 0.783240 0.203467
vt 0.818953 0.191864
vt 0.769599 0.245450
vt 0.791671 0.275828
vt 0.783240 0.226674
vt 0.818953 0.238278
vt 0.864205 0.379167
vt 0.864205 0.397569
vt 0.853388 0.412457
vt 0.835886 0.418144
vt 0.818385 0.412457
vt 0.807568 0.397569
vt 0.807568 0.379167
vt 0.818385 0.364279
vt 0.835886 0.358592
vt 0.853388 0.364279
vt 0.973570 0.687497
vt 0.917314 0.824991
vt 0.790612 0.897903
vt 0.787903 0.977072
vn 0.000000 -1.000000 0.000000
vn 0.000000 -1.000000 0.000000
vn 0.000000 -1.000000 0.000000
vn 0.000000 -1.000000 0.000000
vn 0.000000 -1.000000 -0.000000
vn 0.000000 -1.000000 -0.000000
vn 0.000000 -1.000000 -0.000000
vn 0.000000 -1.000000 -0.000000
vn 0.000000 -1.000000 0.000000
vn 0.000000 -1.000000 0.000000
vn 0.000000 -1.000000 0.000000
vn 0.000000 -1.000000 0.000000
vn 0.000000 -1.000000 0.000000
vn 0.000000 -1.000000 0.000000
vn 0.000000 -1.000000 -0.000000
vn 0.000000 -1.000000 -0.000000
vn 0.000000 -1.000000 -0.000000
vn 0.000000 -1.000000 -0.000000
vn 0.000000 -1.000000 -0.000000
vn 0.000000 -1.000000 -0.000000
vn 0.809017 0.000000 -0.587785
vn 0.309017 0.000000 -0.951056
vn 0.309017 0.000000 -0.951056
vn 0.809017 0.000000 -0.587785
vn -0.309017 0.000000 -0.951057
vn -0.309017 0.000000 -0.951057
vn -0.809017 0.000000 -0.587785
vn -0.809017 0.000000 -0.587785
vn -1.000000 0.000000 0.000000
vn -1.000000 0.000000 0.000000
vn -0.809017 0.000000 0.587785
vn -0.809017 0.000000 0.587785
vn -0.309017 0.000000 0.951057
vn -0.309017 0.000000 0.951057
vn 0.309017 0.000000 0.951057
vn 0.309017 0.000000 0.951057
vn 0.809017 0.000000 0.587785
vn 0.809017 0.000000 0.587785
vn 1.000000 0.000000 -0.000000
vn 1.000000 0.000000 -0.000000
vn 0.387026 0.878147 -0.281191
vn 0.147831 0.878147 -0.454977
vn 0.147831 0.878147 -0.454977
vn 0.387026 0.878147 -0.281191
vn -0.147831 0.878147 -0.454977
vn -0.147831 0.878147 -0.454977
vn -0.387026 0.878147 -0.281191
vn -0.387026 0.878147 -0.281191
vn -0.478391 0.878147 0.000000
vn -0.478391 0.878147 0.000000
vn -0.387026 0.878147 0.281191
vn -0.387026 0.878147 0.281191
vn -0.147831 0.878147 0.454977
vn -0.147831 0.878147 0.454977
vn 0.147831 0.878147 0.454977
vn 0.147831 0.878147 0.454977
vn 0.387026 0.878147 0.281191
vn 0.387026 0.878147 0.281191
vn 0.478391 0.878147 -0.000000
vn 0.478391 0.878147 -0.000000
vn 0.000000 -1.000000 -0.000000
vn 0.809017 0.000000 -0.587785
vn 0.309017 0.000000 -0.951057
vn 0.309017 0.000000 -0.951057
vn 0.809017 0.000000 -0.587785
vn -0.309017 -0.000000 -0.951057
vn -0.309017 -0.000000 -0.951057
vn -0.809017 -0.000000 -0.587785
vn -0.809018 -0.000000 -0.587784
vn -1.000000 0.000000 0.000000
vn -1.000000 0.000000 0.000000
vn -0.809017 0.000000 0.587785
vn -0.809018 0.000000 0.587784
vn -0.309017 0.000000 0.951057
vn -0.309017 0.000000 0.951057
vn 0.309017 0.000000 0.951057
vn 0.309017 0.000000 0.951057
vn 0.587785 0.000000 0.809017
vn 0.587785 0.000000 0.809017
vn 0.951057 0.000000 0.309017
vn 1.000000 0.000000 0.000000
vn 1.000000 0.000000 0.000000
vn 0.951057 0.000000 0.309017
vn 0.000000 1.000000 0.000000
vn 0.000000 1.000000 0.000000
vn 0.000000 1.000000 0.000000
vn 0.000000 1.000000 0.000000
vn 0.000000 1.000000 0.000000
vn 0.000000 1.000000 0.000000
vn 0.000000 1.000000 0.000000
vn 0.000000 1.000000 0.000000
vn 0.000000 1.000000 0.000000
vn 0.000000 1.000000 0.000000
s 1
g polySurface1 pCylinder1
usemtl initialShadingGroup
f 37/131/89 38/132/90 48/133/91 47/134/92
f 38/132/90 39/136/93 49/137/94 48/133/91
f 39/136/93 40/140/95 50/141/96 49/137/94
f 40/140/95 41/144/97 51/145/98 50/141/96
f 41/144/97 42/148/99 52/149/100 51/145/98
f 42/148/99 43/150/101 53/151/102 52/149/100
f 43/150/101 44/146/103 54/147/104 53/151/102
f 44/146/103 45/142/105 55/143/106 54/147/104
f 45/142/105 46/138/107 56/139/108 55/143/106
f 46/138/107 37/131/89 47/134/92 56/139/108
s 2
f 47/115/109 48/121/110 58/122/111 57/116/112
f 48/121/110 49/99/113 59/100/114 58/122/111
f 49/99/113 50/91/115 60/94/116 59/100/114
f 50/91/115 51/92/117 61/93/118 60/94/116
f 51/92/117 52/95/119 62/96/120 61/93/118
f 52/95/119 53/101/121 63/102/122 62/96/120
f 53/101/121 54/162/123 64/163/124 63/102/122
f 54/119/123 55/111/125 65/114/126 64/120/124
f 55/111/125 56/112/127 66/113/128 65/114/126
f 56/112/127 47/115/109 57/116/112 66/113/128
s 3
f 57/116/129 58/122/130 68/127/131 67/123/132
f 58/122/130 59/100/133 69/106/134 68/127/131
f 59/100/133 60/94/135 70/98/136 69/106/134
f 60/94/135 61/93/137 71/97/138 70/98/136
f 61/93/137 62/96/139 72/103/140 71/97/138
f 62/96/139 63/102/141 73/107/142 72/103/140
f 63/102/141 64/163/143 74/164/144 73/107/142
f 64/120/143 65/114/145 75/118/146 74/126/144
f 65/114/145 66/113/147 76/117/148 75/118/146
f 66/113/147 57/116/129 67/123/132 76/117/148
s 1
f 38/132/90 37/131/89 77/135/149
f 39/136/93 38/132/90 77/135/149
f 40/140/95 39/136/93 77/135/149
f 41/144/97 40/140/95 77/135/149
f 42/148/99 41/144/97 77/135/149
f 43/150/101 42/148/99 77/135/149
f 44/146/103 43/150/101 77/135/149
f 45/142/105 44/146/103 77/135/149
f 46/138/107 45/142/105 77/135/149
f 37/131/89 46/138/107 77/135/149
s 4
f 67/123/150 68/127/151 79/130/152 78/128/153
f 68/127/151 69/106/154 80/109/155 79/130/152
f 69/106/154 70/98/156 81/105/157 80/109/155
f 70/98/156 71/97/158 82/104/159 81/105/157
f 71/97/158 72/103/160 83/108/161 82/104/159
f 72/103/160 73/107/162 84/110/163 83/108/161
f 73/107/162 74/164/164 85/165/165 84/110/163
f 74/126/164 75/118/166 86/125/167 85/129/165
f 75/118/168 76/117/169 87/124/170 86/125/171
f 76/117/169 67/123/150 78/128/153 87/124/170
s off
f 79/152/172 80/153/173 81/154/174 82/155/175 83/156/176 84/157/177 85/158/178 86/159/179 87/160/180 78/161/181
g default
v 0.627710 16.751428 -0.456059
v 0.239763 16.751428 -0.737912
v 0.000004 16.758972 0.000002
v -0.239757 16.751428 -0.737922
v -0.627696 16.751430 -0.456062
v -0.775879 16.751428 0.000020
v -0.627704 16.751428 0.456072
v -0.239765 16.751428 0.737912
v 0.239763 16.751428 0.737912
v 0.627710 16.751428 0.456059
v 0.775892 16.751428 0.000000
v 0.627710 16.008295 -0.456059
v 0.239763 16.008295 -0.737912
v -0.239757 16.008295 -0.737922
v -0.627696 16.008297 -0.456062
v -0.775879 16.008295 0.000020
v -0.627704 16.008295 0.456072
v -0.239765 16.008295 0.737912
v 0.239763 16.008295 0.737912
v 0.627710 16.008295 0.456059
v 0.775892 16.008295 0.000000
v 0.808900 16.008295 -0.587701
v 0.308971 16.008295 -0.950913
v 0.308971 16.422374 -0.950913
v 0.808900 16.422374 -0.587701
v -0.308966 16.008295 -0.950926
v -0.308966 16.422374 -0.950926
v -0.808887 16.008297 -0.587706
v -0.808887 16.422376 -0.587706
v -0.999843 16.008295 0.000027
v -0.999844 16.422374 0.000027
v -0.808896 16.008295 0.587722
v -0.808897 16.422374 0.587722
v -0.308976 16.008295 0.950917
v -0.308976 16.422374 0.950917
v 0.308971 16.008295 0.950917
v 0.308971 16.422374 0.950917
v 0.808900 16.008295 0.587705
v 0.808900 16.422374 0.587705
v 0.999856 16.008295 0.000002
v 0.999856 16.422374 0.000002
v -0.238530 15.629520 0.734110
v -0.624470 15.629520 0.453722
v -0.771882 15.629520 0.000019
v -0.624463 15.629522 -0.453712
v -0.238522 15.629520 -0.734120
v 0.238528 15.629520 -0.734110
v 0.624476 15.629520 -0.453709
v 0.771895 15.629520 0.000000
v 0.624476 15.629520 0.453709
v 0.238528 15.629520 0.734110
vt 0.880885 0.289593
vt 0.909539 0.289548
vt 0.852232 0.289668
vt 0.823579 0.289771
vt 0.794924 0.289905
vt 0.766272 0.290068
vt 0.737621 0.290261
vt 0.708969 0.290483
vt 0.966847 0.289547
vt 0.938193 0.289533
vt 0.748699 0.011817
vt 0.780106 0.018843
vt 0.764924 0.085781
vt 0.735929 0.079505
vt 0.811512 0.027070
vt 0.793458 0.093206
vt 0.754998 0.140755
vt 0.730165 0.135557
vt 0.717546 0.005731
vt 0.706379 0.074351
vt 0.842722 0.036597
vt 0.821575 0.101812
vt 0.779747 0.147137
vt 0.705448 0.131770
vt 0.804260 0.154595
vt 0.903902 0.059516
vt 0.933589 0.072696
vt 0.903529 0.135097
vt 0.876604 0.122706
vt 0.962536 0.086680
vt 0.930116 0.148881
vt 0.874913 0.183093
vt 0.852020 0.172569
vt 0.873569 0.047434
vt 0.849290 0.111631
vt 0.990747 0.100933
vt 0.956501 0.164127
vt 0.896754 0.194744
vt 0.828401 0.163078
vt 0.916929 0.207768
vt 0.795665 0.343130
vt 0.767161 0.343292
vt 0.738657 0.343483
vt 0.824172 0.342997
vt 0.852678 0.342893
vt 0.938196 0.342759
vt 0.909689 0.342775
vt 0.881183 0.342819
vt 0.966702 0.342774
vt 0.995208 0.342817
vt 0.966591 0.006919
vt 0.979747 0.025026
vt 0.945304 0.036217
vt 0.979747 0.047408
vt 0.945304 0.000002
vt 0.966591 0.065516
vt 0.924017 0.006919
vt 0.945303 0.072432
vt 0.910861 0.025026
vt 0.924016 0.065516
vt 0.910861 0.047409
vt 0.816572 0.360311
vt 0.803421 0.378412
vt 0.793483 0.375183
vt 0.810430 0.351857
vt 0.803421 0.400785
vt 0.793482 0.404015
vt 0.837850 0.353397
vt 0.837850 0.342948
vt 0.816572 0.418886
vt 0.810429 0.427340
vt 0.859129 0.360311
vt 0.865271 0.351857
vt 0.837851 0.425800
vt 0.837852 0.436249
vt 0.872280 0.378412
vt 0.882218 0.375183
vt 0.859130 0.418886
vt 0.865272 0.427340
vt 0.872280 0.400786
vt 0.882218 0.404015
vt 0.985064 0.241962
vt 0.963895 0.248840
vt 0.942725 0.241962
vt 0.929642 0.223955
vt 0.929643 0.201697
vt 0.942725 0.183689
vt 0.963895 0.176811
vt 0.985063 0.183689
vt 0.998147 0.201697
vt 0.998147 0.223955
vt 0.686985 0.000000
vt 0.676103 0.070309
vt 0.681129 0.129857
vt 0.710153 0.343704
vt 0.995501 0.289591
vn 0.455811 0.826174 -0.331170
vn 0.174108 0.826176 -0.535836
vn 0.000000 1.000000 -0.000001
vn -0.174101 0.826175 -0.535840
vn -0.455817 0.826175 -0.331157
vn -0.563415 0.826174 -0.000006
vn -0.455808 0.826176 0.331167
vn -0.174094 0.826177 0.535839
vn 0.174101 0.826175 0.535839
vn 0.455811 0.826174 0.331168
vn 0.563415 0.826174 -0.000001
vn 0.809014 0.000000 -0.587789
vn 0.309022 0.000000 -0.951055
vn 0.309022 0.000000 -0.951055
vn 0.809014 0.000000 -0.587789
vn -0.309010 -0.000000 -0.951059
vn -0.309012 -0.000000 -0.951058
vn -0.809029 -0.000000 -0.587769
vn -0.809029 -0.000000 -0.587769
vn -1.000000 -0.000000 -0.000007
vn -1.000000 -0.000000 -0.000009
vn -0.809016 -0.000000 0.587787
vn -0.809016 -0.000000 0.587787
vn -0.309001 -0.000000 0.951062
vn -0.309001 -0.000000 0.951062
vn 0.309010 0.000000 0.951059
vn 0.309010 0.000000 0.951059
vn 0.809014 0.000000 0.587789
vn 0.809014 0.000000 0.587789
vn 1.000000 0.000000 0.000000
vn 1.000000 0.000000 0.000000
vn 0.309006 -0.010553 -0.951001
vn 0.808971 -0.010553 -0.587754
vn 0.808971 -0.010553 -0.587754
vn 0.309006 -0.010553 -0.951001
vn -0.308996 -0.010553 -0.951005
vn -0.308993 -0.010553 -0.951006
vn -0.808983 -0.010553 -0.587737
vn -0.808983 -0.010553 -0.587737
vn -0.999944 -0.010553 -0.000010
vn -0.999944 -0.010553 -0.000007
vn -0.808970 -0.010553 0.587755
vn -0.808971 -0.010553 0.587755
vn -0.308983 -0.010553 0.951009
vn -0.308983 -0.010553 0.951009
vn 0.308994 -0.010553 0.951006
vn 0.308994 -0.010553 0.951006
vn 0.808971 -0.010553 0.587754
vn 0.808971 -0.010553 0.587754
vn 0.999944 -0.010553 -0.000000
vn 0.999944 -0.010553 -0.000000
vn 0.000000 -1.000000 0.000000
vn 0.000000 -1.000000 0.000000
vn 0.000000 -1.000000 0.000000
vn 0.000000 -1.000000 0.000000
vn 0.668801 0.562666 -0.485914
vn 0.255466 0.562665 -0.786222
vn 0.000000 -1.000000 -0.000002
vn 0.000000 -1.000000 -0.000002
vn 0.000000 -1.000000 -0.000002
vn 0.000000 -1.000000 -0.000002
vn -0.255454 0.562670 -0.786222
vn -0.000002 -1.000000 0.000006
vn -0.000002 -1.000000 0.000006
vn -0.000002 -1.000000 0.000006
vn -0.000002 -1.000000 0.000006
vn -0.668811 0.562667 -0.485898
vn 0.000001 -1.000000 0.000000
vn 0.000001 -1.000000 0.000000
vn 0.000001 -1.000000 0.000000
vn 0.000001 -1.000000 0.000000
vn -0.826684 0.562667 -0.000004
vn 0.000000 -1.000000 -0.000003
vn 0.000000 -1.000000 -0.000003
vn 0.000000 -1.000000 -0.000003
vn 0.000000 -1.000000 -0.000003
vn -0.668794 0.562676 0.485912
vn 0.000000 -1.000000 0.000008
vn 0.000000 -1.000000 0.000008
vn 0.000000 -1.000000 0.000008
vn 0.000000 -1.000000 0.000008
vn -0.255445 0.562671 0.786224
vn 0.000000 -1.000000 0.000001
vn 0.000000 -1.000000 0.000001
vn 0.000000 -1.000000 0.000001
vn 0.000000 -1.000000 0.000001
vn 0.255454 0.562669 0.786223
vn 0.000000 -1.000000 -0.000002
vn 0.000000 -1.000000 -0.000002
vn 0.000000 -1.000000 -0.000002
vn 0.000000 -1.000000 -0.000002
vn 0.668799 0.562669 0.485913
vn 0.000000 -1.000000 -0.000003
vn 0.000000 -1.000000 -0.000003
vn 0.000000 -1.000000 -0.000003
vn 0.000000 -1.000000 -0.000003
vn 0.826684 0.562666 0.000000
vn 0.000000 -1.000000 0.000000
vn 0.000000 -1.000000 0.000000
vn 0.000000 -1.000000 0.000000
vn 0.000000 -1.000000 0.000000
vn -0.000000 -1.000000 0.000000
vn -0.000000 -1.000000 0.000000
vn -0.000000 -1.000000 0.000000
vn -0.000000 -1.000000 0.000000
vn -0.000000 -1.000000 0.000000
vn -0.000000 -1.000000 0.000000
vn -0.000000 -1.000000 0.000000
vn -0.000000 -1.000000 0.000000
vn -0.000000 -1.000000 0.000000
vn -0.000000 -1.000000 0.000000
s 1
g pCylinder1 polySurface3 polySurface2
usemtl initialShadingGroup
f 88/216/182 89/217/183 90/218/184
f 89/217/183 91/219/185 90/218/184
f 91/219/185 92/221/186 90/218/184
f 92/221/186 93/223/187 90/218/184
f 93/223/187 94/225/188 90/218/184
f 94/225/188 95/226/189 90/218/184
f 95/226/189 96/224/190 90/218/184
f 96/224/190 97/222/191 90/218/184
f 97/222/191 98/220/192 90/218/184
f 98/220/192 88/216/182 90/218/184
s 2
f 109/195/193 110/201/194 111/202/195 112/196/196
f 110/257/194 113/184/197 114/185/198 111/258/195
f 113/184/197 115/176/199 116/179/200 114/185/198
f 115/176/199 117/177/201 118/178/202 116/179/200
f 117/177/201 119/180/203 120/181/204 118/178/202
f 119/180/203 121/186/205 122/187/206 120/181/204
f 121/186/205 123/199/207 124/200/208 122/187/206
f 123/199/207 125/191/209 126/194/210 124/200/208
f 125/191/209 127/192/211 128/193/212 126/194/210
f 127/192/211 109/195/193 112/196/196 128/193/212
s 3
f 100/166/213 99/167/214 135/212/215 134/213/216
f 101/168/217 100/166/213 134/213/216 133/210/218
f 102/169/219 101/168/217 133/210/218 132/209/220
f 103/170/221 102/169/219 132/209/220 131/206/222
f 104/171/223 103/170/221 131/206/222 130/207/224
f 105/172/225 104/171/223 130/207/224 129/208/226
f 106/173/227 105/172/225 129/208/226 138/260/228
f 107/174/229 106/261/227 138/215/228 137/214/230
f 108/175/231 107/174/229 137/214/230 136/211/232
f 99/167/214 108/175/231 136/211/232 135/212/215
s off
f 99/227/233 100/228/234 110/229/235 109/230/236
s 1
f 89/205/183 88/203/182 112/196/237 111/202/238
s off
f 100/228/239 101/231/240 113/232/241 110/229/242
s 1
f 91/189/185 89/259/183 111/258/238 114/185/243
s off
f 101/231/244 102/235/245 115/236/246 113/232/247
s 1
f 92/183/186 91/189/185 114/185/243 116/179/248
s off
f 102/235/249 103/239/250 117/240/251 115/236/252
s 1
f 93/182/187 92/183/186 116/179/248 118/178/253
s off
f 103/239/254 104/243/255 119/244/256 117/240/257
s 1
f 94/188/188 93/182/187 118/178/253 120/181/258
s off
f 104/243/259 105/245/260 121/246/261 119/244/262
s 1
f 95/190/189 94/188/188 120/181/258 122/187/263
s off
f 105/245/264 106/241/265 123/242/266 121/246/267
s 1
f 96/204/190 95/190/189 122/187/263 124/200/268
s off
f 106/241/269 107/237/270 125/238/271 123/242/272
s 1
f 97/198/191 96/204/190 124/200/268 126/194/273
s off
f 107/237/274 108/233/275 127/234/276 125/238/277
s 1
f 98/197/192 97/198/191 126/194/273 128/193/278
s off
f 108/233/279 99/227/280 109/230/281 127/234/282
s 1
f 88/203/182 98/197/192 128/193/278 112/196/237
s off
f 130/247/283 131/248/284 132/249/285 133/250/286 134/251/287 135/252/288 136/253/289 137/254/290 138/255/291 129/256/292
